<svg width="36" height="36" viewBox="0 0 36 36" fill="none" xmlns="http://www.w3.org/2000/svg">
<path d="M0 18C0 8.05888 8.05888 0 18 0C27.9411 0 36 8.05888 36 18C36 27.9411 27.9411 36 18 36C8.05888 36 0 27.9411 0 18Z" fill="url(#paint0_linear_3880_20298)"/>
<path d="M29.3809 16.4537C29.7801 16.0468 30 15.5055 30 14.9298C30 14.3542 29.7801 13.8129 29.3809 13.406L29.2223 13.2442C28.8232 12.8373 28.2923 12.6131 27.7276 12.6131C27.6876 12.6131 27.648 12.6143 27.6085 12.6166C27.6406 12.0251 27.4362 11.4232 26.9941 10.9724C26.5949 10.5655 26.064 10.3413 25.4994 10.3413C25.4347 10.3413 25.3705 10.3442 25.307 10.35C25.3614 9.73523 25.1587 9.10058 24.6977 8.63115C24.2985 8.2242 23.7676 8 23.203 8C22.6383 8 22.1075 8.2242 21.7083 8.63115L18.573 11.8278C18.3118 12.094 18.1274 12.4181 18.0312 12.7713L14.519 9.19049C13.9733 8.63407 13.2471 8.32755 12.4752 8.32755C11.7032 8.32755 10.9776 8.63407 10.4313 9.19049L6.84641 12.8466C6.30065 13.403 6 14.1434 6 14.9304C6 15.7175 6.30065 16.4578 6.84641 17.0142L10.07 20.3008C10.224 20.4578 10.4554 20.5045 10.6564 20.4199C10.8574 20.3352 10.9885 20.135 10.9885 19.9131V15.8097C10.9885 15.1371 11.4993 14.5801 12.1276 14.5684C12.4425 14.5626 12.7392 14.6829 12.9631 14.9071C13.1876 15.1313 13.3107 15.4314 13.3107 15.7519V22.5843C13.3107 23.2423 13.5621 23.8612 14.0185 24.3265L15.7955 26.1382C16.359 26.7127 17.0989 27 17.8394 27C18.5793 27 19.3197 26.7127 19.8832 26.1382L29.3809 16.4549V16.4537ZM27.7282 13.7107C28.0054 13.7107 28.266 13.8205 28.4618 14.0208L28.6199 14.1825C28.8157 14.3822 28.924 14.6478 28.924 14.9304C28.924 15.213 28.8157 15.4787 28.6199 15.6784L25.6426 18.7138C25.4043 18.9567 25.0876 19.0904 24.7503 19.0904C24.413 19.0904 24.0964 18.9567 23.8581 18.7138C23.6623 18.5142 23.554 18.2485 23.554 17.9659C23.554 17.6833 23.6623 17.4177 23.8581 17.218L26.9935 14.0214C27.1893 13.8217 27.4499 13.7113 27.7271 13.7113L27.7282 13.7107ZM26.2336 11.749C26.6384 12.1618 26.6384 12.8326 26.2336 13.2454L23.0982 16.442C22.9023 16.6417 22.6418 16.7521 22.3646 16.7521C22.0874 16.7521 21.8269 16.6423 21.631 16.442C21.4352 16.2424 21.3269 15.9767 21.3269 15.6941C21.3269 15.4115 21.4352 15.1459 21.631 14.9462L24.7664 11.7496C24.9622 11.5499 25.2228 11.4395 25.5 11.4395C25.7771 11.4395 26.0377 11.5487 26.2336 11.749ZM19.334 12.6043L22.4694 9.40769C22.6653 9.20801 22.9258 9.09766 23.203 9.09766C23.4802 9.09766 23.7407 9.20742 23.9366 9.40769C24.3415 9.82048 24.3415 10.4913 23.9366 10.9041L20.8012 14.1008C20.6054 14.3004 20.3448 14.4108 20.0676 14.4108C19.7905 14.4108 19.5299 14.301 19.334 14.1008C19.1382 13.9011 19.0299 13.6354 19.0299 13.3528C19.0299 13.0702 19.1382 12.804 19.334 12.6043ZM19.1227 25.3623C18.4155 26.0833 17.2644 26.0833 16.5566 25.3623L14.7796 23.5505C14.5265 23.2925 14.3867 22.9492 14.3867 22.5843V15.7519C14.3867 15.1348 14.1491 14.5568 13.7167 14.1241C13.2849 13.6921 12.7134 13.4597 12.1081 13.4714C10.8975 13.4941 9.91248 14.5427 9.91248 15.8091V18.5883L7.60748 16.2383C7.26503 15.8891 7.07605 15.4244 7.07605 14.9304C7.07605 14.4365 7.26503 13.9717 7.60748 13.6226L11.1924 9.96761C11.5348 9.61846 11.9907 9.42579 12.4752 9.42579C12.9597 9.42579 13.4155 9.61846 13.758 9.96761L18.573 14.8767C18.9721 15.2837 19.503 15.5079 20.0676 15.5079C20.1318 15.5079 20.1959 15.5049 20.2595 15.4991C20.2537 15.5639 20.2509 15.6287 20.2509 15.6947C20.2509 16.2704 20.4708 16.8116 20.8699 17.2186C21.2691 17.6255 21.7999 17.8497 22.3646 17.8497C22.4041 17.8497 22.4436 17.8486 22.4826 17.8462C22.4803 17.8859 22.4791 17.9262 22.4791 17.9665C22.4791 18.5422 22.699 19.0834 23.0982 19.4904C23.4195 19.8179 23.8175 20.038 24.2515 20.1338L19.1227 25.3623Z" fill="white"/>
<defs>
<linearGradient id="paint0_linear_3880_20298" x1="36" y1="36.0875" x2="0" y2="0.0874529" gradientUnits="userSpaceOnUse">
<stop stop-color="#FF1843" stop-opacity="0.9"/>
<stop offset="1" stop-color="#FF5E7C" stop-opacity="0.9"/>
</linearGradient>
</defs>
</svg>
